<?xml version="1.0" standalone="no"?>
<!DOCTYPE svg PUBLIC "-//W3C//DTD SVG 20010904//EN"
 "http://www.w3.org/TR/2001/REC-SVG-20010904/DTD/svg10.dtd">
<svg version="1.0" xmlns="http://www.w3.org/2000/svg"
 width="183.000000pt" height="60.000000pt" viewBox="0 0 183.000000 60.000000"
 preserveAspectRatio="xMidYMid meet">

<g transform="translate(0.000000,60.000000) scale(0.100000,-0.100000)"
fill="#000000" stroke="none">
<path d="M142 563 c-48 -19 76 -23 819 -23 652 0 820 3 817 13 -4 9 -177 12
-814 14 -445 1 -815 -1 -822 -4z"/>
<path d="M722 402 c-20 -3 -20 -5 -7 -18 22 -22 21 -166 -1 -188 -14 -15 -12
-16 22 -16 29 0 34 3 26 13 -6 7 -13 58 -14 113 -3 96 -4 99 -26 96z"/>
<path d="M810 400 c-17 -4 -21 -8 -12 -14 17 -10 17 -192 0 -199 -7 -3 4 -6
26 -6 31 -1 36 2 28 12 -6 7 -13 58 -14 113 l-3 100 -25 -6z"/>
<path d="M1038 388 c16 -16 16 -180 0 -196 -9 -9 -3 -12 27 -12 30 0 36 3 27
12 -7 7 -12 23 -12 38 l1 25 24 -28 c14 -16 23 -33 20 -38 -4 -5 10 -9 29 -9
l35 0 -42 40 -42 40 33 30 32 30 -32 0 c-21 0 -28 -3 -20 -8 9 -6 6 -14 -13
-32 l-25 -23 0 71 c0 72 0 72 -27 72 -21 0 -24 -3 -15 -12z"/>
<path d="M105 298 c-20 -51 -44 -99 -53 -106 -13 -10 -10 -12 24 -11 21 0 33
3 27 6 -15 5 -17 41 -4 61 5 8 22 12 42 10 26 -2 36 -9 43 -31 8 -22 7 -30 -4
-37 -10 -7 14 -10 69 -10 66 0 82 3 73 12 -15 15 -16 72 -2 99 15 27 56 25 64
-3 11 -44 6 -87 -11 -97 -15 -8 -10 -10 22 -11 30 0 36 3 27 12 -7 7 -12 36
-12 65 0 43 -4 54 -21 64 -15 7 -28 8 -43 1 -11 -5 -37 -7 -56 -4 -33 5 -34 4
-17 -13 13 -13 17 -30 15 -64 -3 -39 -6 -46 -26 -49 -19 -3 -27 6 -51 60 -16
35 -34 80 -42 101 -7 20 -16 37 -20 37 -4 0 -23 -42 -44 -92z m48 25 c2 -10 8
-26 12 -35 6 -15 2 -18 -25 -18 -27 0 -31 3 -25 18 4 9 10 25 12 35 3 9 9 17
13 17 4 0 10 -8 13 -17z"/>
<path d="M1440 363 l0 -27 16 22 c10 14 25 22 45 22 l29 0 0 -90 c0 -85 -1
-91 -22 -100 -18 -7 -9 -9 37 -9 46 0 55 2 37 9 -22 9 -23 14 -20 97 3 87 3
88 30 91 18 2 31 -4 42 -20 l16 -22 0 27 0 27 -105 0 -105 0 0 -27z"/>
<path d="M466 331 c-11 -12 -14 -21 -8 -21 7 0 12 -25 14 -62 3 -58 5 -63 27
-66 13 -2 28 1 35 8 8 8 6 9 -8 4 -24 -9 -36 11 -36 64 0 35 4 44 23 52 l22 9
-22 0 c-12 1 -23 8 -25 17 -3 14 -6 13 -22 -5z"/>
<path d="M578 319 c-10 -5 -18 -14 -18 -19 0 -16 22 -11 35 7 11 15 15 15 29
4 25 -21 19 -34 -22 -56 -27 -15 -37 -26 -37 -45 0 -18 6 -26 23 -28 13 -2 29
2 37 8 9 7 15 8 20 0 3 -5 16 -10 28 -10 16 0 18 3 9 9 -7 4 -16 34 -19 67 -3
32 -11 62 -17 66 -15 11 -48 9 -68 -3z m62 -78 c0 -11 -7 -27 -16 -36 -16 -15
-18 -15 -33 0 -15 15 -14 18 8 36 29 24 41 24 41 0z"/>
<path d="M904 316 c-10 -8 -16 -18 -12 -22 5 -4 17 1 29 12 20 18 21 18 35 0
16 -23 7 -38 -36 -56 -33 -14 -45 -37 -29 -56 14 -17 51 -18 67 -2 9 9 12 9
12 0 0 -15 36 -16 45 -2 4 6 1 9 -7 8 -9 -2 -14 13 -16 52 -2 30 -8 60 -14 67
-14 17 -49 16 -74 -1z m66 -69 c0 -23 -30 -56 -45 -51 -22 9 -18 31 7 48 27
19 38 20 38 3z"/>
<path d="M1222 318 c-22 -22 -14 -56 18 -75 34 -20 41 -53 10 -53 -10 0 -24 8
-29 18 -10 16 -10 16 -11 0 0 -21 46 -35 69 -21 30 19 25 50 -13 75 -20 13
-36 28 -36 35 0 21 21 25 41 7 16 -15 19 -15 19 -2 0 9 -10 18 -22 22 -31 8
-32 8 -46 -6z"/>
<path d="M1356 309 c-32 -25 -37 -86 -8 -112 24 -22 76 -22 93 0 13 15 12 15
-8 5 -12 -7 -26 -12 -32 -12 -18 0 -41 31 -41 56 0 22 4 24 50 24 43 0 49 2
43 18 -15 44 -56 53 -97 21z m68 -14 c4 -12 -3 -15 -29 -15 -33 0 -43 8 -28
23 12 13 51 7 57 -8z"/>
<path d="M1667 310 c-54 -42 -25 -130 43 -130 38 0 80 39 80 73 0 61 -74 95
-123 57z m87 -33 c12 -32 -8 -80 -36 -85 -38 -7 -66 76 -36 106 22 22 62 10
72 -21z"/>
<path d="M47 54 c-4 -4 -4 -11 -1 -15 3 -5 198 -9 435 -9 375 0 429 2 429 15
0 13 -54 15 -428 15 -236 0 -432 -3 -435 -6z"/>
<path d="M967 53 c-4 -3 -7 -10 -7 -15 0 -12 819 -5 823 7 2 11 -805 20 -816
8z"/>
</g>
</svg>
